<?xml version="1.0" standalone="no"?>
<!DOCTYPE svg PUBLIC "-//W3C//DTD SVG 20010904//EN"
 "http://www.w3.org/TR/2001/REC-SVG-20010904/DTD/svg10.dtd">
<svg version="1.0" xmlns="http://www.w3.org/2000/svg"
 width="400.000000pt" height="400.000000pt" viewBox="0 0 400.000000 400.000000"
 preserveAspectRatio="xMidYMid meet">
<metadata>
Created by potrace 1.14, written by Peter Selinger 2001-2017
</metadata>
<g transform="translate(0.000000,400.000000) scale(0.100000,-0.100000)"
fill="#000000" stroke="none">
<path d="M1631 3840 c-77 -17 -143 -41 -246 -92 -206 -103 -325 -212 -404
-372 -57 -115 -72 -181 -78 -336 -4 -102 -1 -158 12 -230 27 -152 28 -222 6
-402 -26 -204 -29 -491 -7 -595 29 -135 101 -288 180 -384 l53 -64 -8 -75 c-5
-41 -13 -85 -19 -97 -13 -31 -74 -59 -145 -67 -33 -4 -103 -22 -155 -41 -158
-56 -487 -163 -615 -200 -182 -53 -205 -63 -205 -91 0 -27 14 -30 50 -9 30 17
40 18 40 4 0 -5 -4 -7 -10 -4 -5 3 -10 -1 -10 -11 0 -15 2 -15 25 0 18 12 25
13 25 4 0 -7 -19 -21 -43 -30 -49 -21 -57 -22 -57 -8 0 6 7 10 15 10 8 0 15 5
15 10 0 13 -11 12 -32 -4 -17 -12 -18 -43 -18 -385 l0 -371 2000 0 2000 0 0
248 0 247 -43 26 c-53 33 -110 52 -212 74 -102 21 -106 23 -130 72 -34 69 -41
73 -114 73 -52 0 -75 6 -111 26 -25 14 -70 30 -100 36 -74 14 -87 22 -94 62
-8 42 -47 76 -87 76 -49 0 -132 21 -183 46 -28 13 -62 24 -77 24 -17 0 -41 13
-65 35 -22 19 -42 35 -46 35 -4 0 -19 12 -35 26 -15 14 -40 28 -55 31 -15 3
-32 10 -36 17 -28 35 -36 623 -11 754 10 49 16 62 31 62 52 0 130 73 147 137
25 93 62 369 56 418 -9 67 -33 115 -56 115 -11 0 -19 6 -19 13 2 143 -11 398
-25 461 -39 184 -125 319 -296 462 -144 120 -254 183 -412 235 -79 26 -110 31
-222 34 -71 2 -150 0 -174 -5z m365 -49 c49 -16 123 -45 165 -64 83 -38 242
-149 283 -197 13 -17 28 -30 33 -30 4 0 19 -14 33 -32 14 -17 32 -39 41 -47 9
-9 29 -36 44 -61 16 -24 34 -51 42 -58 7 -7 13 -18 13 -25 0 -6 -6 -3 -13 7
-13 17 -14 18 -20 2 -5 -12 -3 -15 6 -10 8 5 7 2 -2 -9 -9 -11 -10 -17 -2 -17
6 0 11 -11 11 -24 0 -19 5 -24 20 -23 11 1 20 2 20 3 0 15 -15 32 -24 27 -7
-4 -6 -1 1 7 7 8 14 12 16 9 11 -14 44 -129 37 -129 -9 0 -25 40 -22 53 1 5
-2 6 -8 2 -5 -3 -10 2 -10 11 0 14 -3 15 -12 6 -10 -10 -10 -15 2 -23 11 -8
12 -12 3 -16 -7 -2 -13 -21 -13 -41 0 -28 3 -33 10 -22 5 8 7 24 4 35 -4 16
-3 17 5 5 6 -8 11 -11 11 -6 0 18 30 -17 30 -36 0 -10 4 -17 9 -14 12 8 25
-133 18 -182 -5 -25 -3 -32 3 -22 7 11 10 2 10 -30 0 -25 -4 -40 -8 -33 -4 6
-7 -13 -7 -42 0 -29 3 -51 7 -49 12 8 -3 -59 -17 -76 -23 -27 -43 -87 -35
-101 6 -9 12 -5 21 17 27 63 68 84 89 45 14 -27 13 -28 -15 -35 -25 -6 -85
-78 -85 -102 0 -7 -10 -25 -23 -41 -26 -32 -35 -92 -16 -103 14 -9 14 -65 0
-101 -8 -19 -9 -12 -5 31 5 49 4 53 -9 37 -9 -11 -18 -52 -22 -100 -4 -45 -11
-98 -15 -117 -9 -34 -18 -77 -19 -93 -1 -5 -5 -5 -11 -2 -5 3 -10 1 -10 -4 0
-6 5 -11 11 -11 5 0 7 -5 3 -12 -4 -6 -8 -24 -9 -40 -2 -15 -7 -34 -13 -41 -5
-6 -13 -27 -17 -45 -7 -33 -19 -42 -28 -19 -3 6 -6 2 -6 -10 -1 -12 5 -24 12
-26 7 -3 4 -6 -6 -6 -10 -1 -15 -6 -12 -11 4 -6 -3 -32 -15 -57 -17 -36 -24
-43 -31 -32 -8 12 -12 11 -24 -5 -18 -23 -19 -18 -5 19 8 21 13 25 24 16 14
-12 26 -5 26 15 0 21 -54 10 -58 -12 -5 -27 -22 -42 -22 -20 0 9 -4 14 -10 11
-5 -3 -10 3 -10 15 0 12 -5 18 -10 15 -7 -4 -6 -13 1 -26 8 -16 7 -25 -7 -40
-9 -10 -23 -19 -29 -19 -7 0 -20 -11 -31 -24 -10 -14 -21 -23 -25 -20 -13 7 2
37 28 59 16 14 22 26 18 38 -8 19 -27 23 -24 5 3 -27 -2 -38 -16 -38 -9 0 -20
-11 -25 -25 -13 -33 -20 -32 -16 3 2 15 1 20 -1 12 -3 -8 -10 -21 -15 -27 -7
-9 -7 -18 2 -28 7 -9 10 -18 7 -21 -10 -10 -27 6 -27 27 0 10 -4 19 -10 19 -5
0 -10 -14 -10 -30 0 -24 -6 -33 -26 -40 -25 -10 -26 -13 -20 -58 5 -39 4 -43
-6 -24 -13 26 -26 28 -35 7 -3 -9 2 -21 12 -29 16 -11 16 -15 -4 -52 l-22 -39
2 53 c2 37 -2 57 -13 69 -15 14 -16 10 -13 -49 4 -54 0 -70 -20 -104 -14 -22
-25 -32 -25 -23 0 27 -28 31 -36 6 -5 -12 -7 -25 -6 -29 1 -5 -5 -8 -13 -8 -8
0 -25 -11 -37 -25 -29 -33 -35 -32 -42 10 -4 19 -12 35 -19 35 -7 0 -18 9 -25
21 -17 27 -27 16 -24 -26 2 -18 -1 -36 -7 -40 -7 -4 -11 4 -11 19 0 41 -20 30
-21 -11 -1 -21 -1 -44 0 -50 1 -7 -5 -13 -12 -13 -8 0 -17 -7 -21 -15 -8 -23
-35 -18 -45 8 -9 22 -8 39 4 69 4 11 0 20 -15 28 -18 9 -20 17 -14 48 6 32 5
35 -8 25 -8 -7 -17 -10 -21 -7 -6 6 -12 -11 -27 -80 -6 -27 -19 -59 -29 -72
-18 -23 -19 -22 -19 89 0 150 0 159 -12 152 -5 -3 -11 -39 -11 -78 -1 -40 -3
-64 -6 -54 -10 38 -23 3 -18 -51 4 -53 2 -51 -10 5 -3 14 -15 24 -35 28 -17 4
-27 11 -24 16 8 14 -4 59 -16 59 -6 0 -10 -16 -10 -35 0 -24 -5 -35 -15 -35
-14 0 -21 -17 -28 -70 -2 -14 -7 22 -11 79 -8 103 -9 104 -23 70 -17 -40 -27
-30 -38 38 -3 23 -13 44 -21 47 -8 3 -14 13 -14 23 0 13 -3 14 -11 6 -9 -9 -6
-20 10 -46 29 -47 27 -58 -4 -17 -28 38 -32 72 -10 90 8 7 12 16 9 21 -9 15
-24 10 -24 -7 0 -9 -6 -14 -12 -11 -7 2 -12 14 -11 26 2 11 -2 21 -8 21 -8 0
-7 5 2 16 10 13 10 17 -2 25 -8 5 -19 9 -26 9 -6 0 -9 9 -6 20 4 14 0 20 -11
20 -10 0 -16 8 -16 21 0 12 -5 19 -12 16 -9 -3 -13 -24 -12 -62 1 -32 -2 -51
-7 -44 -6 10 -11 10 -24 -1 -15 -13 -16 -11 -11 24 4 25 1 44 -8 58 -8 11 -12
27 -9 34 3 8 0 14 -6 14 -15 0 -14 -53 1 -68 8 -8 8 -12 1 -12 -16 0 -23 25
-23 86 0 30 -4 54 -10 54 -5 0 -10 -10 -10 -22 -1 -22 -1 -22 -14 -5 -14 18
-14 18 -19 0 -3 -10 -5 0 -6 22 -1 37 -29 133 -31 110 -1 -5 -5 -1 -10 10 -12
31 -12 308 1 420 6 55 12 111 13 125 2 14 6 39 10 55 11 51 10 176 -3 235 -6
30 -10 70 -7 87 2 18 0 30 -4 28 -11 -7 -20 50 -18 119 l1 61 7 -45 c5 -29 8
-36 9 -20 l3 25 8 -25 c7 -23 8 -23 9 -3 1 12 8 28 16 37 8 8 15 17 15 21 0 4
14 27 31 51 47 68 74 77 197 67 74 -6 111 -5 131 3 33 14 45 38 31 65 -7 13
-7 19 0 19 5 0 10 5 10 10 0 6 -7 10 -15 10 -8 0 -15 -5 -15 -11 0 -6 -7 -3
-16 5 -12 12 -37 16 -107 16 -135 0 -163 -7 -210 -52 -30 -28 -43 -35 -49 -26
-4 7 -8 17 -8 22 0 5 -3 7 -6 4 -3 -4 0 -16 6 -28 9 -17 9 -25 -1 -34 -9 -8
-10 -8 -4 3 6 11 4 13 -10 7 -16 -6 -17 -1 -11 60 4 37 10 72 14 78 3 6 7 16
8 21 3 19 68 150 76 153 4 2 8 10 8 17 0 8 11 22 25 33 14 11 25 24 25 28 0
11 62 65 135 119 80 58 252 140 345 164 54 14 109 20 196 20 107 1 131 -2 210
-28z m812 -1307 c-3 -61 -8 -59 -25 13 -7 29 -7 45 1 53 18 18 27 -6 24 -66z
m-38 -59 c0 -12 5 -26 11 -32 26 -26 -25 -334 -52 -317 -5 3 -6 -2 -3 -10 3
-9 -6 -21 -25 -32 -17 -10 -31 -21 -31 -25 0 -12 -40 -18 -46 -7 -6 10 19 31
41 34 6 1 15 2 20 3 6 1 -1 7 -15 14 -22 11 -25 20 -28 69 -3 51 -1 56 16 51
24 -6 31 10 39 89 4 38 9 55 14 46 5 -7 9 -9 9 -3 0 5 -12 19 -27 31 -25 19
-25 22 -11 43 13 18 17 19 21 6 4 -8 2 -15 -3 -15 -6 0 -10 -5 -10 -11 0 -5 4
-8 9 -5 5 4 11 0 14 -6 2 -7 7 -10 11 -7 4 4 1 18 -5 33 -10 20 -10 29 -1 38
7 7 12 19 12 27 0 11 -4 10 -15 -5 -13 -17 -13 -16 -2 14 6 18 13 28 15 22 6
-17 21 -1 16 18 -2 9 2 4 10 -13 8 -16 15 -39 16 -50z m-219 -937 c-7 -48 -7
-87 -1 -102 7 -21 25 -155 32 -248 1 -16 7 -28 13 -28 7 0 26 -21 44 -46 31
-42 33 -49 27 -97 -19 -142 -140 -305 -371 -499 -38 -32 -81 -69 -95 -82 -73
-67 -219 -144 -385 -202 -69 -25 -95 -29 -190 -29 -101 0 -114 2 -162 28 -57
29 -173 133 -173 154 0 7 -5 12 -12 11 -17 -4 -111 130 -128 182 -8 25 -18 47
-22 51 -4 3 -12 25 -17 50 -5 24 -16 80 -26 124 -27 127 -9 261 46 332 16 22
35 104 30 132 -5 29 10 101 21 95 5 -3 8 -14 5 -24 -3 -11 0 -17 7 -14 6 2 17
-5 24 -17 12 -18 12 -23 0 -31 -10 -8 -9 -9 4 -5 18 6 88 -57 88 -80 0 -8 4
-11 10 -8 5 3 20 -1 32 -9 29 -21 39 -20 32 2 -4 13 -1 11 13 -5 10 -12 55
-41 101 -64 74 -37 87 -41 140 -36 31 2 80 14 107 25 39 15 61 18 93 12 23 -4
39 -4 37 0 -3 4 5 10 16 13 11 3 23 15 26 26 3 12 13 21 22 21 16 0 55 26 92
62 10 9 26 18 36 20 10 2 23 15 30 31 7 15 17 27 23 27 5 0 18 8 28 18 81 76
103 93 113 86 8 -5 9 -3 5 5 -10 16 24 53 41 46 8 -3 11 0 7 6 -3 6 12 28 35
50 22 22 41 44 41 50 0 6 10 8 23 5 12 -3 16 -3 9 0 -10 5 -10 9 -1 20 10 12
14 12 22 2 6 -9 7 -7 3 6 -4 12 3 31 21 54 16 20 31 41 36 46 4 7 11 6 18 -4
8 -12 9 -10 4 7 -4 14 0 32 9 45 9 12 17 32 18 43 1 11 4 -25 6 -80 1 -55 -2
-135 -7 -177z m-1525 185 c-11 -11 -19 6 -11 24 8 17 8 17 12 0 3 -10 2 -21
-1 -24z m1342 -63 c-12 -16 -28 -30 -36 -30 -12 0 -12 3 -1 18 17 23 41 42 51
42 5 0 -1 -13 -14 -30z m-1218 6 c0 -3 -4 -8 -10 -11 -5 -3 -10 -1 -10 4 0 6
5 11 10 11 6 0 10 -2 10 -4z m1250 -28 c0 -16 -3 -19 -11 -11 -6 6 -8 16 -5
22 11 17 16 13 16 -11z m-1221 -43 c0 -5 -4 -3 -9 5 -5 8 -9 22 -9 30 0 16 17
-16 18 -35z m1110 -2 c-7 -10 -15 -20 -16 -22 -2 -2 -3 5 -3 17 0 14 6 22 16
22 14 0 15 -3 3 -17z m-65 -28 c-4 -8 -10 -12 -15 -9 -14 8 -10 24 6 24 9 0
12 -6 9 -15z m-55 -33 c0 -24 -1 -25 -9 -7 -12 28 -12 47 0 40 6 -3 10 -18 9
-33z m-499 -223 c0 -5 -7 -9 -16 -9 -13 0 -15 -8 -10 -50 4 -29 2 -50 -3 -50
-16 0 -23 37 -16 84 6 37 10 43 26 39 10 -3 19 -9 19 -14z m-217 -51 c2 -27 1
-48 -3 -48 -13 0 -19 39 -13 78 7 42 9 37 16 -30z m27 19 c0 -12 7 -33 16 -45
8 -12 12 -22 7 -22 -10 0 -43 57 -43 76 0 8 5 14 10 14 6 0 10 -10 10 -23z
m373 16 c6 -11 -11 -53 -21 -53 -5 0 -7 14 -4 30 4 29 16 39 25 23z m-433 -31
c0 -15 -2 -15 -10 -2 -13 20 -13 33 0 25 6 -3 10 -14 10 -23z m-790 -252 c22
-14 -15 -50 -52 -50 -16 0 -36 -7 -44 -15 -20 -19 -29 -19 -50 3 -17 16 -18
16 -11 -2 6 -16 3 -18 -27 -12 -22 4 -37 2 -41 -5 -5 -8 -1 -9 14 -4 31 9 26
-8 -7 -22 -49 -22 -93 -27 -103 -12 -7 12 -12 12 -30 1 -23 -15 -97 -26 -83
-13 5 5 32 14 59 21 28 7 55 16 60 19 15 8 278 99 290 100 6 0 17 -3 25 -9z
m-422 -150 c28 -1 33 -3 21 -10 -10 -6 -28 -6 -46 -1 -17 5 -43 7 -59 5 -28
-3 -28 -3 -4 5 14 5 31 7 38 5 8 -2 30 -4 50 -4z m-28 -24 c0 -3 -4 -8 -10
-11 -5 -3 -10 -1 -10 4 0 6 5 11 10 11 6 0 10 -2 10 -4z"/>
<path d="M2395 3540 c-3 -5 -1 -10 4 -10 6 0 11 5 11 10 0 6 -2 10 -4 10 -3 0
-8 -4 -11 -10z"/>
<path d="M2438 3483 c7 -3 16 -2 19 1 4 3 -2 6 -13 5 -11 0 -14 -3 -6 -6z"/>
<path d="M2490 3450 c-13 -8 -12 -10 3 -10 9 0 17 5 17 10 0 12 -1 12 -20 0z"/>
<path d="M2510 3400 c0 -5 5 -10 10 -10 6 0 10 5 10 10 0 6 -4 10 -10 10 -5 0
-10 -4 -10 -10z"/>
<path d="M2452 3380 c0 -14 2 -19 5 -12 2 6 2 18 0 25 -3 6 -5 1 -5 -13z"/>
<path d="M2555 3380 c3 -5 8 -10 11 -10 2 0 4 5 4 10 0 6 -5 10 -11 10 -5 0
-7 -4 -4 -10z"/>
<path d="M1021 3344 c0 -11 3 -14 6 -6 3 7 2 16 -1 19 -3 4 -6 -2 -5 -13z"/>
<path d="M2560 3345 c0 -15 25 -65 32 -65 6 0 7 7 4 16 -3 9 -6 24 -6 33 0 10
-7 18 -15 18 -8 0 -15 -1 -15 -2z"/>
<path d="M1860 3328 c-19 -5 -46 -17 -59 -27 -19 -15 -22 -23 -16 -49 10 -45
33 -55 102 -42 163 30 313 -3 412 -89 31 -27 47 -22 43 14 -7 60 -86 150 -162
184 -38 17 -65 20 -165 20 -66 -1 -136 -5 -155 -11z"/>
<path d="M1011 3304 c0 -11 3 -14 6 -6 3 7 2 16 -1 19 -3 4 -6 -2 -5 -13z"/>
<path d="M2600 3310 c0 -5 5 -10 11 -10 5 0 7 5 4 10 -3 6 -8 10 -11 10 -2 0
-4 -4 -4 -10z"/>
<path d="M2675 3067 c-8 -19 -2 -31 13 -26 5 2 6 13 2 24 -7 19 -8 19 -15 2z"/>
<path d="M2521 2864 c0 -11 3 -14 6 -6 3 7 2 16 -1 19 -3 4 -6 -2 -5 -13z"/>
<path d="M1945 2838 c-27 -12 -56 -28 -64 -36 -8 -7 -22 -11 -32 -9 -20 5 -36
-8 -21 -17 5 -3 55 -15 113 -27 106 -22 159 -22 340 0 4 1 9 10 12 21 3 14 0
20 -10 20 -9 0 -26 12 -39 27 -15 17 -35 28 -56 30 -175 15 -192 14 -243 -9z
m47 -48 c5 -34 1 -35 -54 -18 l-40 12 34 17 c46 25 55 23 60 -11z m68 10 c0
-23 -25 -27 -33 -6 -7 16 1 26 20 26 7 0 13 -9 13 -20z m138 -12 c18 -18 15
-25 -14 -31 -19 -3 -24 -1 -20 10 3 8 6 19 6 24 0 13 14 11 28 -3z"/>
<path d="M1165 2821 c-22 -10 -49 -26 -60 -35 -38 -29 12 -19 58 13 23 15 49
31 57 34 13 5 13 5 0 6 -8 0 -33 -8 -55 -18z"/>
<path d="M1360 2830 c0 -5 9 -10 20 -10 11 0 20 5 20 10 0 6 -9 10 -20 10 -11
0 -20 -4 -20 -10z"/>
<path d="M1160 2760 c-56 -21 -126 -88 -110 -104 7 -7 16 -7 29 1 14 9 29 9
57 1 41 -11 138 -4 182 14 15 5 54 15 86 22 33 7 62 18 64 24 2 7 -2 12 -10
12 -7 0 -40 11 -73 25 -72 29 -158 32 -225 5z m140 -24 c0 -8 -5 -18 -11 -22
-14 -8 -33 11 -25 25 10 16 36 13 36 -3z m80 -6 c17 -10 14 -15 -17 -24 -19
-6 -23 -3 -23 13 0 22 16 27 40 11z m-208 -25 c6 -31 4 -33 -27 -27 -29 5 -33
26 -7 41 25 15 29 14 34 -14z"/>
<path d="M2650 2589 c0 -5 5 -7 10 -4 6 3 10 8 10 11 0 2 -4 4 -10 4 -5 0 -10
-5 -10 -11z"/>
<path d="M1363 2425 c-27 -19 -53 -75 -53 -114 0 -21 9 -41 25 -56 27 -28 45
-32 45 -10 0 8 -4 15 -9 15 -5 0 -15 16 -21 35 -13 39 -3 84 27 117 21 23 13
32 -14 13z"/>
<path d="M1820 2434 c0 -4 7 -15 16 -25 10 -11 17 -38 18 -70 1 -52 0 -52 -33
-61 -26 -7 -31 -12 -20 -19 45 -28 103 17 92 74 -8 47 -38 102 -56 105 -10 2
-17 0 -17 -4z"/>
<path d="M1695 2370 c-16 -7 -17 -9 -3 -9 9 -1 20 4 23 9 7 11 7 11 -20 0z"/>
<path d="M1638 2353 c7 -3 16 -2 19 1 4 3 -2 6 -13 5 -11 0 -14 -3 -6 -6z"/>
<path d="M1761 2351 c-1 -9 -8 -11 -22 -8 -36 10 -77 -4 -94 -30 -22 -33 -11
-41 27 -19 27 17 36 17 82 6 62 -15 88 -11 92 13 1 9 -2 15 -7 11 -5 -3 -7
-10 -4 -15 4 -5 1 -9 -5 -9 -21 0 -51 21 -60 43 -5 12 -9 16 -9 8z"/>
<path d="M1391 2331 c-35 -35 -23 -54 20 -31 22 12 25 1 7 -20 -11 -12 -10
-12 3 -2 14 10 18 10 23 -4 9 -22 8 -26 -6 -18 -7 4 -8 3 -4 -5 4 -6 12 -8 18
-5 6 4 14 0 19 -7 5 -8 9 -9 9 -3 0 6 -9 21 -20 34 -11 13 -20 27 -20 32 0 12
33 -21 55 -54 15 -24 24 -28 66 -28 27 0 49 5 49 10 0 6 0 13 0 18 -1 4 -10 6
-21 4 -22 -4 -79 16 -79 27 -1 17 -48 60 -72 66 -19 5 -32 1 -47 -14z"/>
<path d="M1690 2286 c0 -9 40 -13 46 -5 3 5 -6 9 -20 9 -14 0 -26 -2 -26 -4z"/>
<path d="M1635 2249 c-11 -16 -1 -19 13 -3 7 8 8 14 3 14 -5 0 -13 -5 -16 -11z"/>
<path d="M1656 2231 c-4 -7 -5 -15 -2 -18 9 -9 19 4 14 18 -4 11 -6 11 -12 0z"/>
<path d="M1600 2186 c0 -9 -4 -16 -10 -16 -5 0 -10 -4 -10 -9 0 -13 56 -19 76
-8 10 6 19 6 23 -1 3 -6 29 -18 56 -27 28 -9 63 -23 78 -31 16 -9 31 -13 34
-10 8 7 64 -22 86 -45 10 -11 27 -19 37 -19 11 0 20 -4 20 -10 0 -5 7 -7 15
-4 10 4 16 -3 21 -23 4 -15 11 -33 16 -40 5 -7 7 -17 4 -22 -4 -5 -1 -13 4
-16 6 -4 15 -18 20 -31 5 -13 14 -24 20 -24 14 0 12 11 -5 34 -8 11 -15 31
-15 45 0 13 -10 35 -22 48 -12 13 -17 23 -11 23 6 0 24 -13 40 -30 35 -37 45
-38 37 -4 -5 19 -4 25 5 20 6 -4 11 -14 11 -22 0 -16 16 -19 25 -4 7 11 -17
61 -39 79 -8 7 -25 14 -38 15 -37 5 -98 35 -105 51 -6 18 -43 20 -43 3 0 -7
-7 -2 -16 10 -16 23 -40 36 -91 48 -20 5 -24 4 -19 -7 4 -8 -4 -1 -17 15 -24
27 -27 28 -66 19 -29 -8 -41 -8 -45 1 -3 8 -5 7 -5 -1 -1 -7 -8 -10 -16 -7 -9
4 -15 0 -15 -10 0 -9 -4 -16 -10 -16 -5 0 -10 6 -10 14 0 8 -4 18 -10 21 -5 3
-10 -1 -10 -9z m280 -76 c0 -5 -2 -10 -4 -10 -3 0 -8 5 -11 10 -3 6 -1 10 4
10 6 0 11 -4 11 -10z m150 -81 c0 -6 -4 -7 -10 -4 -5 3 -10 11 -10 16 0 6 5 7
10 4 6 -3 10 -11 10 -16z m80 -26 c0 -7 -39 17 -46 28 -3 6 5 3 20 -6 14 -10
26 -19 26 -22z"/>
<path d="M1386 2148 c-27 -43 -97 -103 -119 -103 -25 0 -108 -59 -122 -86 -25
-48 -16 -119 15 -119 12 0 21 10 25 31 4 17 4 33 1 36 -3 4 5 21 19 39 14 18
25 37 25 42 0 12 24 22 51 22 11 0 22 7 25 15 4 8 10 15 15 15 14 0 129 70
127 78 -1 4 3 16 9 28 7 12 8 25 2 35 -7 11 -9 11 -9 -3 0 -10 -4 -18 -10 -18
-5 0 -10 7 -10 15 0 26 -16 16 -44 -27z m-190 -184 c-10 -14 -20 -23 -23 -21
-6 6 30 57 36 51 2 -2 -4 -15 -13 -30z m-30 -82 c-11 -10 -15 4 -8 28 l7 25 3
-23 c2 -13 1 -26 -2 -30z"/>
<path d="M1495 2150 c3 -5 10 -10 16 -10 5 0 9 5 9 10 0 6 -7 10 -16 10 -8 0
-12 -4 -9 -10z"/>
<path d="M2591 2144 c0 -11 3 -14 6 -6 3 7 2 16 -1 19 -3 4 -6 -2 -5 -13z"/>
<path d="M1597 2025 c-21 -8 -44 -12 -52 -9 -7 3 -22 1 -32 -5 -15 -9 -11 -11
25 -12 23 -1 48 -2 55 -3 6 -1 11 5 10 12 -4 17 68 16 93 -3 17 -13 17 -14 2
-15 -10 0 -18 5 -18 10 0 6 -10 10 -22 9 -22 0 -22 -1 -3 -8 16 -7 9 -10 -30
-16 -71 -10 -132 -27 -117 -32 7 -3 27 0 45 6 17 7 63 13 102 15 38 2 57 2 40
-1 -16 -2 -61 -10 -100 -18 -67 -13 -216 -8 -232 9 -13 13 9 20 27 8 24 -15
76 -16 85 -2 4 6 -9 10 -32 10 -25 0 -33 3 -25 9 10 6 9 10 -7 14 -12 3 -19 1
-15 -4 3 -5 -4 -9 -14 -9 -21 0 -46 -23 -36 -33 9 -9 -17 -31 -51 -42 -39 -14
-48 -48 -11 -40 14 3 38 7 52 10 18 4 24 2 18 -6 -4 -8 -3 -9 5 -5 6 4 9 11 6
16 -9 15 36 23 125 25 47 1 125 7 173 15 69 11 103 11 155 3 67 -12 143 -5
180 16 18 10 11 13 -69 26 -21 3 -42 12 -49 20 -12 15 -45 22 -37 8 3 -5 -14
-9 -36 -10 l-42 -2 33 10 c48 14 39 24 -25 25 -32 0 -76 3 -98 7 -25 4 -54 1
-78 -8z m231 -52 c-10 -2 -26 -2 -35 0 -10 3 -2 5 17 5 19 0 27 -2 18 -5z m75
-10 c-7 -2 -21 -2 -30 0 -10 3 -4 5 12 5 17 0 24 -2 18 -5z"/>
<path d="M1271 1984 c0 -11 3 -14 6 -6 3 7 2 16 -1 19 -3 4 -6 -2 -5 -13z"/>
<path d="M1448 1993 c6 -2 18 -2 25 0 6 3 1 5 -13 5 -14 0 -19 -2 -12 -5z"/>
<path d="M1498 1983 c6 -2 18 -2 25 0 6 3 1 5 -13 5 -14 0 -19 -2 -12 -5z"/>
<path d="M2511 1884 c0 -11 3 -14 6 -6 3 7 2 16 -1 19 -3 4 -6 -2 -5 -13z"/>
<path d="M1510 1841 c-60 -4 -85 -8 -67 -12 35 -8 147 0 167 12 8 5 11 8 5 7
-5 -1 -53 -4 -105 -7z"/>
<path d="M2507 1834 c6 -15 23 -19 23 -5 0 5 -7 11 -14 14 -10 4 -13 1 -9 -9z"/>
<path d="M1000 1774 c0 -8 5 -12 10 -9 6 3 10 10 10 16 0 5 -4 9 -10 9 -5 0
-10 -7 -10 -16z"/>
<path d="M2410 1759 c0 -5 5 -7 10 -4 6 3 10 8 10 11 0 2 -4 4 -10 4 -5 0 -10
-5 -10 -11z"/>
<path d="M2442 1751 c2 -7 7 -12 11 -12 12 1 9 15 -3 20 -7 2 -11 -2 -8 -8z"/>
<path d="M2380 1730 c0 -5 5 -10 10 -10 6 0 10 5 10 10 0 6 -4 10 -10 10 -5 0
-10 -4 -10 -10z"/>
<path d="M1105 1720 c-7 -12 2 -30 16 -30 5 0 9 9 9 20 0 21 -15 27 -25 10z"/>
<path d="M2090 1710 c0 -19 3 -21 12 -12 9 9 9 15 0 24 -9 9 -12 7 -12 -12z"/>
<path d="M2160 1699 c0 -11 5 -17 10 -14 6 3 10 13 10 21 0 8 -4 14 -10 14 -5
0 -10 -9 -10 -21z"/>
<path d="M2242 1699 c2 -6 8 -10 13 -10 5 0 11 4 13 10 2 6 -4 11 -13 11 -9 0
-15 -5 -13 -11z"/>
<path d="M1720 1679 c0 -21 -1 -22 -13 -5 -12 17 -15 17 -30 2 -8 -9 -18 -12
-21 -7 -3 4 -22 6 -43 4 -21 -2 -49 -4 -62 -4 -18 1 -22 -3 -16 -17 5 -14 4
-15 -6 -4 -22 21 -39 14 -39 -18 0 -16 4 -30 8 -30 5 0 14 -12 21 -26 9 -20 9
-30 0 -40 -14 -17 2 -19 19 -2 7 7 12 8 12 2 0 -6 6 -11 13 -11 6 0 19 -2 27
-4 10 -3 14 2 12 15 -3 14 1 17 12 13 23 -9 20 15 -4 36 -28 24 -33 21 -26
-13 3 -16 2 -30 -3 -30 -12 0 -21 26 -21 57 0 20 4 24 18 18 9 -4 23 -8 30 -9
8 -1 17 -9 22 -16 5 -8 12 -11 16 -8 4 4 -1 19 -11 34 -12 19 -14 29 -6 37 8
8 11 8 11 -1 0 -12 26 -12 46 1 7 4 15 0 18 -8 8 -23 45 2 38 27 -7 28 -22 32
-22 7z m-182 -71 c13 -13 16 -48 4 -48 -4 0 -13 14 -19 30 -12 31 -6 39 15 18z"/>
<path d="M2120 1685 c0 -8 4 -15 10 -15 5 0 7 7 4 15 -4 8 -8 15 -10 15 -2 0
-4 -7 -4 -15z"/>
<path d="M2150 1660 c0 -5 5 -10 11 -10 5 0 7 5 4 10 -3 6 -8 10 -11 10 -2 0
-4 -4 -4 -10z"/>
<path d="M1410 1645 c-17 -20 3 -45 31 -38 14 4 18 1 14 -9 -6 -16 31 -55 42
-44 4 4 2 15 -4 24 -6 10 -14 32 -18 50 -5 25 -12 32 -30 32 -12 0 -28 -7 -35
-15z"/>
<path d="M2190 1644 c0 -8 5 -12 10 -9 6 3 10 10 10 16 0 5 -4 9 -10 9 -5 0
-10 -7 -10 -16z"/>
<path d="M2065 1640 c3 -5 8 -10 11 -10 2 0 4 5 4 10 0 6 -5 10 -11 10 -5 0
-7 -4 -4 -10z"/>
<path d="M2130 1625 c0 -18 -9 -28 -35 -41 -19 -9 -35 -23 -35 -31 0 -7 -13
-22 -30 -31 -19 -11 -30 -25 -30 -39 0 -31 -27 -29 -42 2 -6 14 -15 25 -21 25
-12 0 1 -53 16 -62 31 -20 85 7 74 36 -4 10 -1 16 7 16 24 0 57 36 49 55 -4
12 -3 16 4 12 6 -4 24 0 41 9 28 14 30 17 20 44 -12 36 -18 38 -18 5z"/>
<path d="M1673 1625 c-3 -9 -3 -18 0 -21 9 -9 27 6 27 22 0 19 -19 18 -27 -1z"/>
<path d="M2017 1623 c-7 -11 3 -63 13 -63 15 0 19 45 6 58 -8 8 -16 10 -19 5z"/>
<path d="M1907 1464 c-4 -4 -7 -14 -7 -23 0 -11 3 -12 11 -4 6 6 10 16 7 23
-2 6 -7 8 -11 4z"/>
<path d="M1870 1420 c0 -5 5 -10 10 -10 6 0 10 5 10 10 0 6 -4 10 -10 10 -5 0
-10 -4 -10 -10z"/>
<path d="M1380 1376 c0 -19 5 -38 10 -41 6 -4 10 10 10 34 0 23 -4 41 -10 41
-5 0 -10 -15 -10 -34z"/>
<path d="M1442 1399 c2 -7 10 -15 17 -17 8 -3 12 1 9 9 -2 7 -10 15 -17 17 -8
3 -12 -1 -9 -9z"/>
<path d="M1773 1368 c0 -27 3 -48 8 -48 10 0 10 22 -1 65 -6 26 -7 24 -7 -17z"/>
<path d="M1830 1400 c0 -5 7 -10 15 -10 8 0 15 5 15 10 0 6 -7 10 -15 10 -8 0
-15 -4 -15 -10z"/>
<path d="M1900 1400 c0 -5 5 -10 10 -10 6 0 10 5 10 10 0 6 -4 10 -10 10 -5 0
-10 -4 -10 -10z"/>
<path d="M1955 1400 c3 -5 12 -10 20 -10 7 0 17 -9 20 -20 3 -11 10 -20 14
-20 13 0 31 24 31 42 0 20 -16 25 -22 7 -3 -9 -9 -9 -25 0 -27 14 -46 14 -38
1z"/>
<path d="M1422 1380 c0 -14 2 -19 5 -12 2 6 2 18 0 25 -3 6 -5 1 -5 -13z"/>
<path d="M1581 1384 c0 -11 3 -14 6 -6 3 7 2 16 -1 19 -3 4 -6 -2 -5 -13z"/>
<path d="M1630 1385 c0 -8 5 -15 10 -15 6 0 10 7 10 15 0 8 -4 15 -10 15 -5 0
-10 -7 -10 -15z"/>
<path d="M1805 1370 c-3 -5 -1 -10 4 -10 6 0 11 5 11 10 0 6 -2 10 -4 10 -3 0
-8 -4 -11 -10z"/>
<path d="M1865 1371 c-7 -12 12 -24 25 -16 11 7 4 25 -10 25 -5 0 -11 -4 -15
-9z"/>
<path d="M1470 1355 c0 -5 5 -17 10 -25 5 -8 10 -10 10 -5 0 6 -5 17 -10 25
-5 8 -10 11 -10 5z"/>
<path d="M1950 1350 c0 -5 5 -10 10 -10 6 0 10 5 10 10 0 6 -4 10 -10 10 -5 0
-10 -4 -10 -10z"/>
<path d="M1705 1341 c-6 -11 9 -23 19 -14 9 9 7 23 -3 23 -6 0 -12 -4 -16 -9z"/>
<path d="M1890 1331 c-7 -13 -11 -14 -21 -3 -23 22 -39 15 -26 -13 8 -17 18
-23 30 -19 13 4 17 0 17 -20 0 -14 5 -28 11 -32 8 -4 9 3 5 22 -7 32 7 64 18
45 12 -19 28 -12 24 12 -4 27 -44 33 -58 8z"/>
<path d="M1578 1297 c-6 -29 1 -49 13 -41 12 7 12 51 0 58 -5 3 -11 -4 -13
-17z"/>
<path d="M1741 1233 c0 -31 2 -34 9 -18 12 28 12 55 0 55 -5 0 -10 -17 -9 -37z"/>
<path d="M2466 1561 c4 -15 1 -27 -7 -32 -11 -7 -11 -9 -1 -9 18 0 25 26 12
47 -9 16 -10 15 -4 -6z"/>
<path d="M2378 1443 c7 -3 16 -2 19 1 4 3 -2 6 -13 5 -11 0 -14 -3 -6 -6z"/>
<path d="M1186 1225 c-9 -26 -7 -32 5 -12 6 10 9 21 6 23 -2 3 -7 -2 -11 -11z"/>
<path d="M2130 1226 c0 -8 5 -18 10 -21 6 -3 10 3 10 14 0 12 -4 21 -10 21 -5
0 -10 -6 -10 -14z"/>
<path d="M1170 1182 c0 -5 7 -9 15 -9 8 0 15 4 15 9 0 4 -7 8 -15 8 -8 0 -15
-4 -15 -8z"/>
<path d="M1165 1141 c-3 -5 -1 -12 5 -16 5 -3 10 1 10 9 0 18 -6 21 -15 7z"/>
<path d="M1194 1138 c1 -7 13 -15 25 -16 16 -3 21 0 16 8 -4 6 -13 9 -20 6 -8
-3 -16 -1 -19 5 -2 5 -3 4 -2 -3z"/>
<path d="M1280 1141 c0 -6 4 -13 10 -16 6 -3 7 1 4 9 -7 18 -14 21 -14 7z"/>
<path d="M2085 1029 c-11 -16 -1 -19 13 -3 7 8 8 14 3 14 -5 0 -13 -5 -16 -11z"/>
<path d="M1680 1000 c0 -6 7 -10 15 -10 8 0 15 2 15 4 0 2 -7 6 -15 10 -8 3
-15 1 -15 -4z"/>
<path d="M1728 983 c6 -2 18 -2 25 0 6 3 1 5 -13 5 -14 0 -19 -2 -12 -5z"/>
<path d="M1598 963 c7 -3 16 -2 19 1 4 3 -2 6 -13 5 -11 0 -14 -3 -6 -6z"/>
<path d="M1760 916 c0 -9 5 -16 10 -16 6 0 10 4 10 9 0 6 -4 13 -10 16 -5 3
-10 -1 -10 -9z"/>
<path d="M2026 901 c-4 -7 -5 -15 -2 -18 9 -9 19 4 14 18 -4 11 -6 11 -12 0z"/>
<path d="M1985 870 c3 -5 8 -10 11 -10 2 0 4 5 4 10 0 6 -5 10 -11 10 -5 0 -7
-4 -4 -10z"/>
<path d="M1091 844 c0 -11 3 -14 6 -6 3 7 2 16 -1 19 -3 4 -6 -2 -5 -13z"/>
<path d="M1848 793 c7 -3 16 -2 19 1 4 3 -2 6 -13 5 -11 0 -14 -3 -6 -6z"/>
<path d="M1151 614 c0 -11 3 -14 6 -6 3 7 2 16 -1 19 -3 4 -6 -2 -5 -13z"/>
<path d="M1191 544 c0 -11 3 -14 6 -6 3 7 2 16 -1 19 -3 4 -6 -2 -5 -13z"/>
<path d="M2335 540 c-10 -11 -16 -22 -14 -24 2 -2 12 7 22 20 22 29 17 32 -8
4z"/>
<path d="M1186 478 c3 -5 10 -6 15 -3 13 9 11 12 -6 12 -8 0 -12 -4 -9 -9z"/>
<path d="M1230 445 c0 -8 4 -15 10 -15 5 0 7 7 4 15 -4 8 -8 15 -10 15 -2 0
-4 -7 -4 -15z"/>
<path d="M1245 400 c3 -5 8 -10 11 -10 2 0 4 5 4 10 0 6 -5 10 -11 10 -5 0 -7
-4 -4 -10z"/>
<path d="M590 950 c-8 -5 -12 -11 -9 -14 3 -3 14 1 25 9 21 16 8 20 -16 5z"/>
<path d="M320 855 c0 -13 4 -14 23 -4 33 17 33 19 4 19 -18 0 -27 -5 -27 -15z"/>
</g>
</svg>
